<svg width="32" height="32" viewBox="0 0 32 32" fill="none" xmlns="http://www.w3.org/2000/svg">
<path d="M16.0002 11.3333V16M16.0002 20.6667H16.0118M4.3335 11.9432V20.0568C4.3335 20.3422 4.3335 20.4848 4.36573 20.6191C4.39431 20.7381 4.44145 20.8519 4.50542 20.9563C4.57756 21.0741 4.67845 21.175 4.88023 21.3767L10.6234 27.1199C10.8252 27.3217 10.9261 27.4226 11.0438 27.4947C11.1482 27.5587 11.262 27.6058 11.3811 27.6344C11.5153 27.6667 11.658 27.6667 11.9434 27.6667H20.057C20.3423 27.6667 20.485 27.6667 20.6193 27.6344C20.7383 27.6058 20.8521 27.5587 20.9565 27.4947C21.0742 27.4226 21.1751 27.3217 21.3769 27.1199L27.1201 21.3767C27.3219 21.175 27.4228 21.0741 27.4949 20.9563C27.5589 20.8519 27.606 20.7381 27.6346 20.6191C27.6668 20.4848 27.6668 20.3422 27.6668 20.0568V11.9432C27.6668 11.6578 27.6668 11.5152 27.6346 11.3809C27.606 11.2618 27.5589 11.148 27.4949 11.0437C27.4228 10.9259 27.3219 10.825 27.1201 10.6233L21.3769 4.88006C21.1751 4.67829 21.0742 4.5774 20.9565 4.50525C20.8521 4.44128 20.7383 4.39414 20.6193 4.36556C20.485 4.33333 20.3423 4.33333 20.057 4.33333H11.9434C11.658 4.33333 11.5153 4.33333 11.3811 4.36556C11.262 4.39414 11.1482 4.44128 11.0438 4.50525C10.9261 4.5774 10.8252 4.67829 10.6234 4.88006L4.88023 10.6233C4.67845 10.825 4.57756 10.9259 4.50542 11.0437C4.44145 11.148 4.39431 11.2618 4.36573 11.3809C4.3335 11.5152 4.3335 11.6578 4.3335 11.9432Z" stroke="#BB8C54" stroke-width="2" stroke-linecap="round" stroke-linejoin="round"/>
</svg>
