<svg width="25" height="24" viewBox="0 0 25 24" fill="none" xmlns="http://www.w3.org/2000/svg">
<g clip-path="url(#clip0_111_5343)">
<path d="M12.25 2C6.7272 2 2.25 6.4772 2.25 12C2.25 16.6896 5.4788 20.6248 9.8344 21.7056V15.056H7.7724V12H9.8344V10.6832C9.8344 7.2796 11.3748 5.702 14.7164 5.702C15.35 5.702 16.4432 5.8264 16.8904 5.9504V8.7204C16.6544 8.6956 16.2444 8.6832 15.7352 8.6832C14.0956 8.6832 13.462 9.3044 13.462 10.9192V12H16.7284L16.1672 15.056H13.462V21.9268C18.4136 21.3288 22.2504 17.1128 22.2504 12C22.25 6.4772 17.7728 2 12.25 2Z" fill="white"/>
</g>
<defs>
<clipPath id="clip0_111_5343">
<rect width="20" height="20" fill="white" transform="translate(2.25 2)"/>
</clipPath>
</defs>
</svg>
