<svg width="25" height="24" viewBox="0 0 25 24" fill="none" xmlns="http://www.w3.org/2000/svg">
<g clip-path="url(#clip0_111_5346)">
<path d="M12.25 3.80078C14.9219 3.80078 15.2383 3.8125 16.2891 3.85937C17.2656 3.90234 17.793 4.06641 18.1445 4.20313C18.6094 4.38281 18.9453 4.60156 19.293 4.94922C19.6445 5.30078 19.8594 5.63281 20.0391 6.09766C20.1758 6.44922 20.3398 6.98047 20.3828 7.95312C20.4297 9.00781 20.4414 9.32422 20.4414 11.9922C20.4414 14.6641 20.4297 14.9805 20.3828 16.0313C20.3398 17.0078 20.1758 17.5352 20.0391 17.8867C19.8594 18.3516 19.6406 18.6875 19.293 19.0352C18.9414 19.3867 18.6094 19.6016 18.1445 19.7813C17.793 19.918 17.2617 20.082 16.2891 20.125C15.2344 20.1719 14.918 20.1836 12.25 20.1836C9.57813 20.1836 9.26172 20.1719 8.21094 20.125C7.23438 20.082 6.70703 19.918 6.35547 19.7813C5.89063 19.6016 5.55469 19.3828 5.20703 19.0352C4.85547 18.6836 4.64063 18.3516 4.46094 17.8867C4.32422 17.5352 4.16016 17.0039 4.11719 16.0313C4.07031 14.9766 4.05859 14.6602 4.05859 11.9922C4.05859 9.32031 4.07031 9.00391 4.11719 7.95312C4.16016 6.97656 4.32422 6.44922 4.46094 6.09766C4.64063 5.63281 4.85938 5.29688 5.20703 4.94922C5.55859 4.59766 5.89063 4.38281 6.35547 4.20313C6.70703 4.06641 7.23828 3.90234 8.21094 3.85937C9.26172 3.8125 9.57813 3.80078 12.25 3.80078ZM12.25 2C9.53516 2 9.19531 2.01172 8.12891 2.05859C7.06641 2.10547 6.33594 2.27734 5.70313 2.52344C5.04297 2.78125 4.48438 3.12109 3.92969 3.67969C3.37109 4.23438 3.03125 4.79297 2.77344 5.44922C2.52734 6.08594 2.35547 6.8125 2.30859 7.875C2.26172 8.94531 2.25 9.28516 2.25 12C2.25 14.7148 2.26172 15.0547 2.30859 16.1211C2.35547 17.1836 2.52734 17.9141 2.77344 18.5469C3.03125 19.207 3.37109 19.7656 3.92969 20.3203C4.48438 20.875 5.04297 21.2188 5.69922 21.4727C6.33594 21.7188 7.0625 21.8906 8.125 21.9375C9.19141 21.9844 9.53125 21.9961 12.2461 21.9961C14.9609 21.9961 15.3008 21.9844 16.3672 21.9375C17.4297 21.8906 18.1602 21.7188 18.793 21.4727C19.4492 21.2188 20.0078 20.875 20.5625 20.3203C21.1172 19.7656 21.4609 19.207 21.7148 18.5508C21.9609 17.9141 22.1328 17.1875 22.1797 16.125C22.2266 15.0586 22.2383 14.7188 22.2383 12.0039C22.2383 9.28906 22.2266 8.94922 22.1797 7.88281C22.1328 6.82031 21.9609 6.08984 21.7148 5.45703C21.4688 4.79297 21.1289 4.23438 20.5703 3.67969C20.0156 3.125 19.457 2.78125 18.8008 2.52734C18.1641 2.28125 17.4375 2.10938 16.375 2.0625C15.3047 2.01172 14.9648 2 12.25 2Z" fill="white"/>
<path d="M12.25 6.86328C9.41406 6.86328 7.11328 9.16406 7.11328 12C7.11328 14.8359 9.41406 17.1367 12.25 17.1367C15.0859 17.1367 17.3867 14.8359 17.3867 12C17.3867 9.16406 15.0859 6.86328 12.25 6.86328ZM12.25 15.332C10.4102 15.332 8.91797 13.8398 8.91797 12C8.91797 10.1602 10.4102 8.66797 12.25 8.66797C14.0898 8.66797 15.582 10.1602 15.582 12C15.582 13.8398 14.0898 15.332 12.25 15.332Z" fill="white"/>
<path d="M18.7891 6.66016C18.7891 7.32422 18.25 7.85938 17.5898 7.85938C16.9258 7.85938 16.3906 7.32031 16.3906 6.66016C16.3906 5.99609 16.9297 5.46094 17.5898 5.46094C18.25 5.46094 18.7891 6 18.7891 6.66016Z" fill="white"/>
</g>
<defs>
<clipPath id="clip0_111_5346">
<rect width="20" height="20" fill="white" transform="translate(2.25 2)"/>
</clipPath>
</defs>
</svg>
