<svg width="127" height="76" viewBox="0 0 127 76" fill="none" xmlns="http://www.w3.org/2000/svg">
<path d="M79.5762 2.5332H49.9494C47.2472 2.5332 45.0566 4.75496 45.0566 7.49564V37.5447C45.0566 40.2853 47.2472 42.5071 49.9494 42.5071H79.5762C82.2784 42.5071 84.4688 40.2853 84.4688 37.5447V7.49564C84.4688 4.75496 82.2784 2.5332 79.5762 2.5332Z" fill="#D4C2B0"/>
<path d="M80.0832 42.5071H64.5459V18.2919C64.5459 14.1124 66.1829 10.1041 69.0967 7.14882C72.0105 4.19349 75.9625 2.5332 80.0832 2.5332C81.2454 2.5332 82.36 3.00148 83.1818 3.83502C84.0037 4.66856 84.4654 5.79908 84.4654 6.97789V38.0708C84.4631 39.2482 84.0004 40.3766 83.1789 41.2083C82.3573 42.0401 81.2439 42.5071 80.0832 42.5071Z" fill="#C4AFA0"/>
<path d="M70.4235 35.5387L66.5434 39.2818C66.1935 39.615 65.7292 39.7964 65.2494 39.7876C64.7693 39.7785 64.312 39.5798 63.9744 39.2337L60.4289 35.5558C60.2007 35.3204 60.0276 35.0359 59.9227 34.7234C59.8179 34.4108 59.784 34.0784 59.8237 33.7506L62.945 16.0738C63.004 15.7311 63.1812 15.4209 63.4448 15.1986C63.7085 14.9762 64.0416 14.8562 64.3845 14.86H66.7416C67.0886 14.8546 67.4258 14.9769 67.691 15.2041C67.9561 15.4314 68.1312 15.7484 68.1836 16.0964L71.0875 33.7224C71.1212 34.0564 71.0789 34.3939 70.9638 34.7089C70.8486 35.0237 70.6638 35.3077 70.4235 35.5387Z" fill="#C4AFA0"/>
<path d="M69.7265 35.1374L65.8519 38.8776C65.502 39.2114 65.0374 39.3934 64.557 39.3848C64.0766 39.3765 63.6185 39.1783 63.2801 38.8322L59.7376 35.1543C59.5086 34.9195 59.3352 34.635 59.2304 34.3222C59.1255 34.0097 59.092 33.677 59.1322 33.3493L62.2537 15.6724C62.3119 15.3295 62.489 15.0189 62.7528 14.7965C63.0166 14.574 63.3499 14.4542 63.693 14.4586H66.0501C66.3969 14.4538 66.734 14.5763 66.999 14.8034C67.2639 15.0306 67.439 15.3472 67.4921 15.695L70.396 33.3181C70.4292 33.6532 70.3862 33.9914 70.27 34.3067C70.154 34.6222 69.968 34.9064 69.7265 35.1374Z" fill="#DDDDDD"/>
<path d="M67.5114 15.7854H65.4277L66.1474 14.1982C66.1537 14.185 66.163 14.1734 66.1745 14.1643C66.1859 14.1552 66.1991 14.1488 66.2134 14.1455C66.2275 14.1423 66.2423 14.1423 66.2563 14.1455C66.2704 14.1487 66.2838 14.1551 66.2952 14.1642L66.9647 14.7301C67.064 14.8153 67.1422 14.9228 67.1934 15.0441L67.5114 15.7854Z" fill="#DDDDDD"/>
<path d="M69.0292 34.5316L65.1491 38.2746C64.799 38.6084 64.3344 38.7904 63.854 38.782C63.3737 38.7735 62.9155 38.5753 62.5771 38.2294L59.0346 34.5513C58.8054 34.3167 58.632 34.0322 58.5272 33.7194C58.4223 33.4069 58.3888 33.0741 58.4292 32.7463L61.5507 15.0694C61.6096 14.727 61.7868 14.4172 62.0506 14.1953C62.3143 13.9734 62.6474 13.854 62.9899 13.8585H65.3471C65.6939 13.8543 66.0306 13.9769 66.2955 14.204C66.5603 14.4311 66.7357 14.7474 66.7893 15.0949L69.6986 32.6954C69.7342 33.0331 69.6924 33.3746 69.5763 33.6931C69.4601 34.0116 69.2729 34.2987 69.0292 34.5316Z" fill="white"/>
<path d="M68.6944 7.39941H62.1921C61.5199 7.39941 61.0763 8.27648 61.3552 9.03754L62.5073 12.1101C62.6283 12.4056 62.8293 12.6604 63.0869 12.8451C63.3445 13.0298 63.6484 13.1369 63.9635 13.154H66.9508C67.2712 13.1374 67.5801 13.0277 67.8407 12.8381C68.1012 12.6485 68.3027 12.387 68.4209 12.0846L69.5201 9.02056C69.8018 8.2595 69.3582 7.39941 68.6944 7.39941Z" fill="#C4AFA0"/>
<path d="M67.9971 6.99756H61.4948C60.8226 6.99756 60.379 7.87179 60.658 8.63567L61.8101 11.7082C61.9311 12.0037 62.132 12.2585 62.3896 12.4432C62.6473 12.6279 62.9511 12.7351 63.2662 12.7522H66.2648C66.5851 12.7355 66.894 12.6259 67.1546 12.4363C67.4151 12.2467 67.6166 11.9851 67.7348 11.6827L68.8338 8.61586C69.1045 7.85763 68.6609 6.99756 67.9971 6.99756Z" fill="#DDDDDD"/>
<path d="M61.6514 11.7653L62.4184 12.4301L62.7113 11.5078L61.6514 11.7653Z" fill="#DDDDDD"/>
<path d="M68.1337 7.32614H67.2549L67.4864 6.47738C67.4892 6.46713 67.4943 6.45766 67.5014 6.44975C67.5084 6.44185 67.517 6.43572 67.5268 6.43186C67.5366 6.42801 67.5471 6.42655 67.5576 6.42756C67.568 6.42859 67.578 6.43209 67.5869 6.43777L67.8882 6.59622L67.9412 6.62733C68.2849 6.88152 68.5751 7.20279 68.7947 7.57229L68.1337 7.32614Z" fill="#DDDDDD"/>
<path d="M67.2998 6.38428H60.7976C60.1254 6.38428 59.6818 7.26133 59.9607 8.02239L61.1128 11.0977C61.2338 11.3933 61.4347 11.6481 61.6924 11.8328C61.95 12.0175 62.2539 12.1246 62.5689 12.1417H65.5563C65.877 12.1248 66.1861 12.0147 66.4466 11.8246C66.7074 11.6345 66.9086 11.3724 67.0264 11.0695L68.1255 8.00541C68.4072 7.25284 67.9636 6.38428 67.2998 6.38428Z" fill="white"/>
<path fill-rule="evenodd" clip-rule="evenodd" d="M71.6026 61.4963L71.6372 70.8459L71.9153 71.459C72.2795 72.2615 72.7949 72.7876 73.5572 73.1347C74.095 73.3796 74.3738 73.4167 75.6871 73.4186C76.9129 73.4206 77.3583 73.37 78.0446 73.1507C79.3978 72.7184 79.3732 72.767 78.9392 71.3893L78.5695 70.2159L77.9444 70.435C76.4349 70.9641 75.4621 70.605 75.2131 69.4269C75.127 69.0207 75.0826 65.9716 75.0826 60.4786V52.1465H73.3254H71.5681L71.6026 61.4963ZM12.7909 52.4622C12.7409 52.5134 12.7002 57.1535 12.7002 62.7736V72.9919H15.3599H18.0196V69.573V66.1545L19.9238 66.0929C22.0812 66.0232 22.773 65.8724 24.2839 65.1429C26.5965 64.0259 27.8455 61.8765 27.8455 59.0132C27.8455 56.2674 26.7898 54.422 24.6085 53.3549C22.9611 52.549 22.5116 52.491 17.4151 52.4265C14.9217 52.3949 12.8408 52.4109 12.7909 52.4622ZM21.2769 56.9579C21.9686 57.3064 22.3328 57.8565 22.4383 58.7121C22.7201 60.9998 21.5927 62.0787 18.9204 62.0787H18.0196V59.301V56.5233L19.3731 56.6019C20.4266 56.6631 20.8484 56.7419 21.2769 56.9579ZM36.3355 56.847C36.0694 56.9366 35.6887 57.0977 35.4891 57.2049C35.0182 57.4577 34.1848 58.3448 33.9056 58.8906L33.6862 59.3198L33.4928 58.2775L33.2996 57.2352L31.2208 57.2016C30.0774 57.1833 29.1432 57.2108 29.1444 57.263C29.1457 57.3153 29.2256 57.9097 29.322 58.584C29.4573 59.5315 29.498 61.3087 29.5009 66.401L29.5048 72.9919H32.0435H34.5825L34.5852 68.1177C34.587 65.4369 34.6377 63.0272 34.6982 62.7626C34.8235 62.2145 35.1139 61.7771 35.5935 61.414C36.0778 61.0471 37.4401 60.997 38.3605 61.312C38.7428 61.4431 39.0556 61.5399 39.0556 61.527C39.0556 61.5143 39.2137 60.7089 39.4071 59.7373C39.9368 57.0738 39.9535 57.2919 39.2001 57.0271C38.3421 56.7257 36.9542 56.6383 36.3355 56.847ZM46.3392 56.8195C44.0395 57.2082 42.1313 58.6419 41.0134 60.821C40.3486 62.1174 40.0248 63.4039 39.9411 65.0829C39.7149 69.614 41.6442 72.5536 45.3384 73.3067C46.6845 73.5809 48.988 73.4925 50.2989 73.116C51.3114 72.8252 53.2005 71.9452 53.2005 71.7641C53.2005 71.6536 52.0316 68.6198 51.9156 68.4296C51.8856 68.3804 51.605 68.4995 51.2916 68.694C50.6114 69.1164 49.507 69.5017 48.6446 69.6178C46.994 69.8394 45.4575 68.9127 45.1677 67.5205L45.0881 67.138L46.272 66.9869C49.6896 66.5505 51.8145 65.3981 52.6716 63.516C52.9869 62.824 53.0183 62.6336 53.0118 61.4656C53.0058 60.4324 52.9506 60.0396 52.7323 59.4766C51.9281 57.4026 49.3152 56.3165 46.3392 56.8195ZM54.1157 57.4498C54.1628 57.6017 55.4399 61.2296 56.9538 65.5121L59.7064 73.2984L61.8205 73.3318L63.9347 73.3653L64.0519 73.0254C64.2128 72.559 69.5386 57.5183 69.6106 57.3273C69.6555 57.2075 69.0999 57.1739 67.0766 57.1739H64.4847L63.24 61.1285C62.5556 63.3034 61.9549 65.1599 61.9054 65.2539C61.8505 65.3581 61.3825 64.0763 60.7082 61.9743C59.1724 57.1866 59.16 57.1739 55.9777 57.1739H54.0303L54.1157 57.4498ZM85.6259 57.7209C82.3013 58.4879 80.4013 61.1009 80.0945 65.3282C79.957 67.2247 80.336 69.4518 81.0323 70.836C81.3676 71.5024 82.4035 72.5189 83.089 72.854C85.1941 73.8832 87.95 73.5325 89.4128 72.049C89.7157 71.7418 89.9893 71.5164 90.0208 71.5483C90.0524 71.5802 90.118 71.932 90.1669 72.3298L90.2559 73.0531L91.8117 73.0876L93.3677 73.1221L93.2766 72.7811C93.2266 72.5934 93.1615 69.3119 93.1321 65.4882L93.0786 58.5366L92.5131 58.3487C92.2022 58.2455 91.4853 58.045 90.92 57.9033C89.5674 57.5642 86.7286 57.4664 85.6259 57.7209ZM96.7231 63.4664C96.7231 66.9614 96.7722 69.2929 96.8553 69.7505C97.2731 72.0507 98.7602 73.2989 101.257 73.4448C103.207 73.5588 104.656 73.0323 105.816 71.788C106.373 71.1907 106.458 71.1393 106.57 71.3309C107.385 72.7182 108.419 73.3466 110.057 73.4504C113.119 73.644 115.306 72.0629 116.288 68.9454C116.719 67.5764 116.837 66.6213 116.836 64.5311C116.835 62.4056 116.675 61.1185 116.158 59.0746L115.879 57.9709L114.159 57.9371C113.134 57.9167 112.44 57.9498 112.44 58.019C112.44 58.083 112.575 58.7053 112.741 59.4021C113.795 63.8408 113.586 68.197 112.242 69.79C111.674 70.4629 111.264 70.662 110.445 70.662C109.532 70.662 109.095 70.411 108.772 69.7031C108.518 69.1457 108.509 68.9691 108.473 63.5195L108.435 57.9097H106.694H104.954L104.919 63.3356L104.884 68.7615L104.545 69.3465C104.04 70.2164 103.411 70.5878 102.349 70.6421C101.548 70.6833 101.456 70.6615 101.083 70.3428C100.286 69.6628 100.293 69.7262 100.253 63.5195L100.216 57.9097H98.4695H96.7231V63.4664ZM89.1973 60.3621L89.5902 60.5087V64.4274C89.5902 66.8457 89.5399 68.5492 89.4587 68.8762C89.2932 69.5428 88.7478 70.2217 88.0975 70.5708C87.7102 70.7788 87.3862 70.8411 86.6793 70.8431C85.8686 70.8456 85.696 70.8036 85.1809 70.4781C84.4226 69.9991 83.9449 69.1476 83.7215 67.8766C83.4238 66.1824 83.5426 64.2531 84.0383 62.7309C84.4446 61.4829 85.1563 60.6721 86.1912 60.2781C86.7066 60.0818 88.5866 60.1345 89.1973 60.3621ZM48.3096 60.663C48.5488 60.9057 48.6064 61.088 48.6064 61.6037C48.6064 62.1997 48.57 62.2787 48.0738 62.761C47.4713 63.3464 46.4683 63.7812 45.4767 63.8865L44.8256 63.9557L44.9145 63.3546C45.188 61.5047 46.1481 60.364 47.433 60.3627C47.888 60.3621 48.0769 60.427 48.3096 60.663Z" fill="white"/>
</svg>
