<svg width="154" height="40" viewBox="0 0 154 40" fill="none" xmlns="http://www.w3.org/2000/svg">
<g clip-path="url(#clip0_111_1643)">
<path d="M34.5048 0H4.8906C2.1896 0 0 2.22245 0 4.96396V35.0223C0 37.7637 2.1896 39.9862 4.8906 39.9862H34.5048C37.2057 39.9862 39.3953 37.7637 39.3953 35.0223V4.96396C39.3953 2.22245 37.2057 0 34.5048 0Z" fill="#D4C2B0"/>
<path d="M35.012 39.9862H19.4814V15.7635C19.4814 11.5828 21.1176 7.57327 24.0301 4.61704C26.9428 1.6608 30.8931 0 35.012 0C36.1737 0 37.288 0.468421 38.1093 1.30222C38.9309 2.13601 39.3924 3.26689 39.3924 4.44605V35.5486C39.3901 36.7264 38.9277 37.8551 38.1063 38.687C37.2852 39.519 36.1722 39.9862 35.012 39.9862Z" fill="#C4AFA0"/>
<path d="M25.356 33.0156L21.4776 36.7598C21.1278 37.0932 20.6637 37.2746 20.184 37.2657C19.7043 37.2567 19.247 37.0579 18.9096 36.7116L15.3657 33.0326C15.1375 32.7972 14.9645 32.5126 14.8597 32.2C14.755 31.8874 14.7211 31.5548 14.7607 31.227L17.8807 13.5447C17.9396 13.2019 18.1166 12.8916 18.3803 12.6692C18.6438 12.4467 18.9766 12.3267 19.3196 12.3305H21.6756C22.0226 12.3251 22.3597 12.4474 22.6246 12.6747C22.8896 12.9021 23.0645 13.2192 23.1171 13.5673L26.0196 31.1987C26.0533 31.5329 26.0109 31.8704 25.8959 32.1855C25.781 32.5004 25.5962 32.7845 25.356 33.0156Z" fill="#C4AFA0"/>
<path d="M24.6591 32.6137L20.7861 36.3551C20.4363 36.689 19.9718 36.8711 19.4916 36.8626C19.0116 36.8541 18.5536 36.6558 18.2153 36.3097L14.6743 32.6308C14.4455 32.3957 14.2722 32.1113 14.1674 31.7985C14.0626 31.4857 14.029 31.1529 14.0692 30.8251L17.1893 13.1428C17.2476 12.7998 17.4245 12.4891 17.6883 12.2666C17.952 12.0441 18.2852 11.9243 18.6281 11.9287H20.9841C21.3309 11.9238 21.6676 12.0463 21.9326 12.2736C22.1975 12.5008 22.3725 12.8175 22.4256 13.1654L25.3283 30.7939C25.3615 31.1291 25.3184 31.4675 25.2023 31.7829C25.0863 32.0984 24.9005 32.3827 24.6591 32.6137Z" fill="#DDDDDD"/>
<path d="M22.4455 13.256H20.3628L21.0821 11.6683C21.0885 11.6551 21.0978 11.6435 21.1091 11.6344C21.1206 11.6252 21.1339 11.6188 21.148 11.6156C21.1623 11.6123 21.1769 11.6123 21.191 11.6156C21.2052 11.6188 21.2184 11.6252 21.2299 11.6343L21.8991 12.2003C21.9983 12.2856 22.0766 12.3931 22.1276 12.5145L22.4455 13.256Z" fill="#DDDDDD"/>
<path d="M23.9621 32.0084L20.0837 35.7526C19.7337 36.0865 19.2694 36.2685 18.7891 36.26C18.3091 36.2516 17.8511 36.0533 17.5129 35.7072L13.9718 32.0282C13.7428 31.7934 13.5694 31.5088 13.4646 31.196C13.3598 30.8832 13.3263 30.5504 13.3667 30.2226L16.4868 12.5402C16.5457 12.1978 16.7229 11.8878 16.9865 11.6658C17.2501 11.4439 17.583 11.3245 17.9256 11.329H20.2817C20.6283 11.3247 20.9648 11.4474 21.2296 11.6746C21.4943 11.9017 21.6695 12.2181 21.7232 12.5657L24.6313 30.1717C24.6669 30.5094 24.6251 30.851 24.509 31.1697C24.3929 31.4883 24.2056 31.7753 23.9621 32.0084Z" fill="white"/>
<path d="M23.628 4.86761H17.1287C16.4567 4.86761 16.0134 5.74495 16.2922 6.50624L17.4438 9.5797C17.5647 9.87532 17.7656 10.1302 18.0231 10.315C18.2806 10.4998 18.5843 10.6069 18.8993 10.624H21.8854C22.2056 10.6073 22.5143 10.4977 22.7749 10.308C23.0354 10.1183 23.2366 9.85671 23.3548 9.55422L24.4535 6.48925C24.7351 5.72796 24.2918 4.86761 23.628 4.86761Z" fill="#C4AFA0"/>
<path d="M22.9303 4.46579H16.4309C15.759 4.46579 15.3156 5.34027 15.5945 6.10441L16.746 9.17787C16.867 9.47347 17.0678 9.72836 17.3253 9.91313C17.5828 10.0979 17.8866 10.205 18.2016 10.2222H21.1988C21.5189 10.2055 21.8278 10.0958 22.0883 9.90617C22.3488 9.7165 22.5501 9.45488 22.6682 9.1524L23.7668 6.08458C24.0374 5.32612 23.594 4.46579 22.9303 4.46579Z" fill="#DDDDDD"/>
<path d="M16.5879 9.23468L17.3547 9.89974L17.6474 8.97714L16.5879 9.23468Z" fill="#DDDDDD"/>
<path d="M23.0673 4.79421H22.189L22.4203 3.94518C22.4232 3.93492 22.4283 3.92546 22.4352 3.91754C22.4422 3.90964 22.451 3.90352 22.4608 3.89965C22.4705 3.8958 22.481 3.89433 22.4915 3.89535C22.5019 3.89639 22.5119 3.89988 22.5208 3.90556L22.822 4.06406L22.875 4.09519C23.2186 4.34945 23.5085 4.67083 23.7281 5.04043L23.0673 4.79421Z" fill="#DDDDDD"/>
<path d="M22.2336 3.85164H15.7342C15.0622 3.85164 14.6189 4.72897 14.8977 5.49026L16.0492 8.56657C16.1702 8.86217 16.371 9.11706 16.6286 9.30183C16.8861 9.48661 17.1898 9.59372 17.5047 9.61087H20.491C20.8113 9.59396 21.1204 9.48385 21.3808 9.29366C21.6415 9.1035 21.8425 8.84127 21.9604 8.53827L23.0589 5.47328C23.3405 4.72048 22.8972 3.85164 22.2336 3.85164Z" fill="white"/>
<path fill-rule="evenodd" clip-rule="evenodd" d="M108.786 17.8158L108.82 27.1683L109.098 27.7817C109.462 28.5844 109.978 29.1105 110.74 29.4578C111.277 29.7027 111.556 29.7399 112.869 29.7419C114.094 29.7439 114.539 29.6932 115.225 29.4738C116.578 29.0413 116.553 29.0901 116.119 27.7118L115.75 26.538L115.125 26.7572C113.616 27.2866 112.644 26.9274 112.395 25.7489C112.309 25.3424 112.264 22.2926 112.264 16.7979V8.46318H110.508H108.751L108.786 17.8158ZM49.9992 8.7789C49.9493 8.83017 49.9087 13.4716 49.9087 19.0935V29.3149H52.5673H55.2258V25.8951V22.4755L57.129 22.4138C59.2855 22.3441 59.9771 22.1933 61.4873 21.4635C63.7989 20.3461 65.0473 18.1962 65.0473 15.332C65.0473 12.5852 63.9921 10.7393 61.8118 9.67183C60.1652 8.86574 59.7159 8.80772 54.6215 8.7432C52.1292 8.71156 50.0492 8.72763 49.9992 8.7789ZM58.4818 13.276C59.173 13.6246 59.5371 14.175 59.6425 15.0307C59.9242 17.3191 58.7973 18.3984 56.1262 18.3984H55.2258V15.6198V12.8413L56.5786 12.9199C57.6316 12.9811 58.0533 13.06 58.4818 13.276ZM73.5337 13.1651C73.2678 13.2548 72.8873 13.4158 72.6878 13.523C72.217 13.7759 71.384 14.6634 71.105 15.2093L70.8856 15.6386L70.6923 14.596L70.4993 13.5534L68.4213 13.5198C67.2784 13.5014 66.3445 13.529 66.3457 13.5812C66.3471 13.6334 66.4269 14.2281 66.5233 14.9027C66.6584 15.8503 66.6992 17.6282 66.7022 22.7221L66.7059 29.3149H69.2438H71.7814L71.7844 24.4393C71.786 21.7577 71.8367 19.3471 71.897 19.0825C72.0225 18.5344 72.3126 18.0966 72.7922 17.7335C73.2762 17.3665 74.638 17.3163 75.5578 17.6315C75.9401 17.7625 76.2527 17.8593 76.2527 17.8466C76.2527 17.8338 76.4108 17.0282 76.604 16.0564C77.1335 13.3919 77.1502 13.6101 76.3972 13.3453C75.5395 13.0437 74.1521 12.9563 73.5337 13.1651ZM83.5331 13.1375C81.2344 13.5263 79.3272 14.9604 78.2099 17.1402C77.5452 18.4371 77.2215 19.724 77.1377 21.4035C76.9116 25.9361 78.8403 28.8767 82.5328 29.63C83.8783 29.9042 86.1808 29.8157 87.4913 29.4392C88.5031 29.1483 90.3915 28.2678 90.3915 28.0869C90.3915 27.9762 89.223 24.9416 89.1072 24.7511C89.0774 24.7021 88.7968 24.8212 88.4835 25.0157C87.8035 25.4383 86.6998 25.8238 85.8377 25.9397C84.1879 26.1614 82.652 25.2344 82.3622 23.8419L82.2826 23.4592L83.4661 23.3081C86.8821 22.8715 89.0061 21.7188 89.8629 19.8361C90.178 19.144 90.2095 18.9534 90.2028 17.7851C90.197 16.7515 90.1418 16.3587 89.9236 15.7955C89.1196 13.7208 86.508 12.6344 83.5331 13.1375ZM91.3064 13.7681C91.3535 13.9199 92.6298 17.549 94.1432 21.8327L96.8946 29.6215L99.0078 29.655L101.121 29.6883L101.238 29.3484C101.399 28.8821 106.723 13.8367 106.795 13.6454C106.839 13.5257 106.284 13.4921 104.262 13.4921H101.671L100.427 17.4478C99.7425 19.6235 99.1421 21.4806 99.0927 21.5746C99.0378 21.6789 98.5701 20.3966 97.8961 18.294C96.3609 13.5048 96.3484 13.4921 93.1676 13.4921H91.2211L91.3064 13.7681ZM122.803 14.0392C119.48 14.8065 117.581 17.4203 117.274 21.6488C117.137 23.5459 117.516 25.7738 118.212 27.1583C118.547 27.825 119.582 28.8418 120.267 29.1769C122.372 30.2066 125.126 29.8557 126.588 28.3717C126.891 28.0643 127.165 27.839 127.196 27.8709C127.228 27.9028 127.293 28.2546 127.342 28.6526L127.431 29.3761L128.986 29.4107L130.541 29.4451L130.451 29.104C130.4 28.9163 130.335 25.6337 130.306 21.8091L130.253 14.8552L129.687 14.6672C129.376 14.5639 128.66 14.3634 128.095 14.2217C126.743 13.8825 123.905 13.7846 122.803 14.0392ZM133.896 19.7863C133.896 23.2826 133.945 25.6147 134.028 26.0726C134.445 28.3735 135.932 29.6221 138.427 29.7681C140.376 29.882 141.825 29.3553 142.985 28.1106C143.541 27.5133 143.626 27.4617 143.739 27.6534C144.553 29.0411 145.586 29.6697 147.224 29.7734C150.285 29.9673 152.471 28.3857 153.452 25.2672C153.883 23.8979 154.001 22.9423 154 20.8516C153.998 18.7253 153.839 17.438 153.322 15.3933L153.043 14.2894L151.324 14.2554C150.299 14.2351 149.605 14.2682 149.605 14.3375C149.605 14.4015 149.741 15.024 149.906 15.7209C150.96 20.1611 150.751 24.5186 149.408 26.112C148.84 26.7852 148.43 26.9844 147.611 26.9844C146.699 26.9844 146.262 26.7334 145.939 26.0251C145.685 25.4677 145.677 25.291 145.64 19.8395L145.602 14.2281H143.862H142.123L142.087 19.6556L142.053 25.0832L141.714 25.6685C141.21 26.5387 140.581 26.91 139.519 26.9645C138.718 27.0057 138.627 26.9838 138.253 26.665C137.457 25.9848 137.464 26.0482 137.424 19.8395L137.387 14.2281H135.641H133.896V19.7863ZM126.373 16.6813L126.766 16.8279V20.7479C126.766 23.1669 126.715 24.871 126.634 25.1981C126.469 25.865 125.924 26.5439 125.274 26.8932C124.886 27.1012 124.563 27.1633 123.856 27.1656C123.046 27.168 122.873 27.1259 122.358 26.8004C121.6 26.3212 121.123 25.4695 120.9 24.1982C120.602 22.5032 120.721 20.5734 121.216 19.0508C121.622 17.8023 122.334 16.9913 123.368 16.5972C123.883 16.4009 125.763 16.4535 126.373 16.6813ZM85.5027 16.9823C85.7418 17.2249 85.7994 17.4073 85.7994 17.9232C85.7994 18.5195 85.763 18.5985 85.2669 19.0809C84.6649 19.6665 83.6622 20.1014 82.6712 20.2068L82.0203 20.2761L82.1091 19.6747C82.3825 17.8241 83.3422 16.6832 84.6266 16.6818C85.0814 16.6813 85.2701 16.7461 85.5027 16.9823Z" fill="white"/>
</g>
<defs>
<clipPath id="clip0_111_1643">
<rect width="154" height="40" fill="white"/>
</clipPath>
</defs>
</svg>
