<svg width="25" height="24" viewBox="0 0 25 24" fill="none" xmlns="http://www.w3.org/2000/svg">
<g clip-path="url(#clip0_111_5340)">
<path d="M22.0508 8C22.0508 8 21.8555 6.62109 21.2539 6.01563C20.4922 5.21875 19.6406 5.21484 19.25 5.16797C16.4531 4.96484 12.2539 4.96484 12.2539 4.96484H12.2461C12.2461 4.96484 8.04688 4.96484 5.25 5.16797C4.85938 5.21484 4.00781 5.21875 3.24609 6.01563C2.64453 6.62109 2.45312 8 2.45312 8C2.45312 8 2.25 9.62109 2.25 11.2383V12.7539C2.25 14.3711 2.44922 15.9922 2.44922 15.9922C2.44922 15.9922 2.64453 17.3711 3.24219 17.9766C4.00391 18.7734 5.00391 18.7461 5.44922 18.832C7.05078 18.9844 12.25 19.0313 12.25 19.0313C12.25 19.0313 16.4531 19.0234 19.25 18.8242C19.6406 18.7773 20.4922 18.7734 21.2539 17.9766C21.8555 17.3711 22.0508 15.9922 22.0508 15.9922C22.0508 15.9922 22.25 14.375 22.25 12.7539V11.2383C22.25 9.62109 22.0508 8 22.0508 8ZM10.1836 14.5938V8.97266L15.5859 11.793L10.1836 14.5938Z" fill="white"/>
</g>
<defs>
<clipPath id="clip0_111_5340">
<rect width="20" height="20" fill="white" transform="translate(2.25 2)"/>
</clipPath>
</defs>
</svg>
